<svg xmlns="http://www.w3.org/2000/svg" viewBox="0 0 79.4 111.04"><title>flash</title><g id="Calque_2" data-name="Calque 2"><g id="flash"><path d="M66.18,43.54H42.56a1.15,1.15,0,0,1-1.14-1.15V1.15A1.15,1.15,0,0,0,39.29.56L.16,65.77a1.15,1.15,0,0,0,1,1.73H24.77a1.14,1.14,0,0,1,1.14,1.14v41.25a1.14,1.14,0,0,0,2.12.59L67.16,45.27A1.14,1.14,0,0,0,66.18,43.54Z" style="fill:#4e00ff"/><path d="M78.78,14.64a16.15,16.15,0,0,1-8.25-4.11A15.75,15.75,0,0,1,66.59,3a.77.77,0,0,0-1.47,0,18.76,18.76,0,0,1-4.55,7.54,15.28,15.28,0,0,1-7.28,4.17.77.77,0,0,0-.09,1.45,23,23,0,0,1,7.37,5,19.66,19.66,0,0,1,4.71,7.25.76.76,0,0,0,1.44,0,19.53,19.53,0,0,1,4.71-7.25,23,23,0,0,1,7.49-5A.77.77,0,0,0,78.78,14.64Z" style="fill:#4e00ff"/></g></g></svg>