<svg xmlns="http://www.w3.org/2000/svg" viewBox="0 0 52 52">
    <path style="fill:#fff;" d="M26,0A26,26,0,1,0,52,26,26,26,0,0,0,26,0Zm0,50A24,24,0,1,1,50,26,24,24,0,0,1,26,50Z"/>
    <path style="fill:#fff;" d="M26,37a1,1,0,0,0-1,1v2a1,1,0,0,0,2,0V38A1,1,0,0,0,26,37Z"/>
    <path style="fill:#fff;"
          d="M26.11,9H26a8,8,0,0,0-8,8,1,1,0,0,0,2,0,6,6,0,0,1,6.09-6A6.11,6.11,0,0,1,32,16.91a6,6,0,0,1-2.75,5.14A9.52,9.52,0,0,0,25,30.16V33a1,1,0,0,0,2,0V30.16a7.65,7.65,0,0,1,3.33-6.43A8,8,0,0,0,34,16.89,8.06,8.06,0,0,0,26.11,9Z"/>
</svg>