<svg xmlns="http://www.w3.org/2000/svg" viewBox="0 0 91 91"><title>aide</title><g id="Calque_2" data-name="Calque 2"><g id="_" data-name="?"><path d="M45.5,0A45.5,45.5,0,1,0,91,45.5,45.5,45.5,0,0,0,45.5,0Zm2.6,76.07A7.06,7.06,0,0,1,43,78.12a7.16,7.16,0,0,1-5.22-2.05,7.41,7.41,0,0,1,0-10.34A7.17,7.17,0,0,1,43,63.67a7.07,7.07,0,0,1,5.12,2.06,7.41,7.41,0,0,1,0,10.34ZM61.36,40.85a32.75,32.75,0,0,1-11.25,8.28h0L48.64,61l-10-3.57L38,42.54h0a33.41,33.41,0,0,0,10.42-5.21c2.74-2.14,4.12-4.3,4.12-6.5a5.06,5.06,0,0,0-2-4.2,7.48,7.48,0,0,0-4.8-1.56,23.48,23.48,0,0,0-6.68,1.24,38.36,38.36,0,0,0-9,4.34L28.43,19a33.12,33.12,0,0,1,8.64-3.84,34.17,34.17,0,0,1,9-1.19q9.24,0,14.32,4.67a15.7,15.7,0,0,1,1,22.18Z" style="fill:#fff"/></g></g></svg>