<svg xmlns="http://www.w3.org/2000/svg" viewBox="0 0 512 512">
    <path style="fill:#fff;"
          d="M506.55,208.06,263.86,30.37a13.29,13.29,0,0,0-15.72,0L5.45,208.06a13.3,13.3,0,1,0,15.71,21.47L256,57.59,490.84,229.53a13.3,13.3,0,1,0,15.71-21.47Z"/>
    <path style="fill:#fff;"
          d="M442.25,232.54a13.31,13.31,0,0,0-13.31,13.31V457.59H322.52V342a66.52,66.52,0,1,0-133,0V457.6H83.06V245.85a13.31,13.31,0,1,0-26.61,0V470.9a13.3,13.3,0,0,0,13.3,13.3h133A13.3,13.3,0,0,0,216,471.94c0-.32.05-.66.05-1V342a39.92,39.92,0,0,1,79.83,0V470.9a7.91,7.91,0,0,0,.05,1,13.29,13.29,0,0,0,13.25,12.28h133a13.3,13.3,0,0,0,13.3-13.3v-225A13.31,13.31,0,0,0,442.25,232.54Z"/>
</svg>