<svg xmlns="http://www.w3.org/2000/svg" width="421.264" height="242.664" viewBox="0 0 421.264 242.664">
  <g id="Groupe_11" data-name="Groupe 11" transform="translate(-192.693 -99.457)">
    <g id="logo" transform="translate(245.282 99.457)">
      <g id="Groupe_6" data-name="Groupe 6" transform="translate(36.994)">
        <path id="Tracé_413" data-name="Tracé 413" d="M668.932,163.819a80.558,80.558,0,0,1,2.4,82.384l39.992-39.993Z" transform="translate(-470.391 -124.88)" fill="#fff"/>
        <path id="Tracé_414" data-name="Tracé 414" d="M508.2,99.457a81.925,81.925,0,0,0-32.6,6.731,80.418,80.418,0,0,1,46.11,42.606,31.837,31.837,0,0,1,.92,63.657A80.414,80.414,0,0,1,475.6,257.159a82.22,82.22,0,1,0,32.6-157.7Z" transform="translate(-394.024 -99.457)" fill="#fff"/>
        <path id="Tracé_415" data-name="Tracé 415" d="M530.915,181c-.05,0-.1-.008-.149-.008a31.859,31.859,0,1,0,0,63.718c.361,0,.711-.042,1.068-.054a80.311,80.311,0,0,0-.92-63.656Z" transform="translate(-403.231 -131.664)" fill="#fff"/>
        <path id="Tracé_416" data-name="Tracé 416" d="M386.573,159.824l-45.809,45.809L387.3,252.166a82.29,82.29,0,0,1-.724-92.342Z" transform="translate(-340.764 -123.302)" fill="#fff"/>
      </g>
    </g>
    <g id="repères" transform="translate(192.693 290.447)">
      <g id="Groupe_8" data-name="Groupe 8">
        <path id="Tracé_431" data-name="Tracé 431" d="M213.975,451.789l-10.641-13.411v28.132H192.693V416.948h7l16.181,21.575q3.714-5.321,7.361-10.751t7.36-10.825h6.78v49.563H226.582V439.47q-2.042,2.918-4.191,5.869t-4.262,5.866a16.141,16.141,0,0,0-2.079.29A15.83,15.83,0,0,1,213.975,451.789Z" transform="translate(-192.693 -415.857)" fill="#fff"/>
        <path id="Tracé_432" data-name="Tracé 432" d="M305.761,416.948,324.712,465.2l-10.641,1.311-4.155-11.005H291.695l-4.081,11.005H276.9L296,416.948Zm-5.1,13.921-5.9,16.035H306.71Z" transform="translate(-225.955 -415.857)" fill="#fff"/>
        <path id="Tracé_433" data-name="Tracé 433" d="M361.949,428.845a12.547,12.547,0,0,1,4.665-9.8q4.591-3.9,12.826-3.9a26.181,26.181,0,0,1,7.509,1.13,34.368,34.368,0,0,1,6.706,2.731l-3.425,8.019q-2.843-1.165-5.285-1.969a17.1,17.1,0,0,0-5.356-.8,8.858,8.858,0,0,0-4.775,1.165,3.73,3.73,0,0,0-1.859,3.352,4.6,4.6,0,0,0,2.441,3.864,68.12,68.12,0,0,0,6.305,3.571,60.719,60.719,0,0,1,10.169,6.524,12.7,12.7,0,0,1-.11,20.042q-4.96,3.972-13.995,3.971a33.568,33.568,0,0,1-8.236-1.275,19.783,19.783,0,0,1-6.925-2.877l2.844-8.455a32.712,32.712,0,0,0,5.611,2.3,21.208,21.208,0,0,0,6.486,1.13,11.028,11.028,0,0,0,6.05-1.349,4.076,4.076,0,0,0,2.041-3.535q0-2.113-2.767-3.935a52.33,52.33,0,0,0-6.124-3.425,61.365,61.365,0,0,1-9.985-6.376A12.147,12.147,0,0,1,361.949,428.845Z" transform="translate(-259.55 -415.144)" fill="#fff"/>
        <path id="Tracé_434" data-name="Tracé 434" d="M452.828,424.227a9.813,9.813,0,0,0-8.53,4.591q-3.132,4.595-3.131,12.39a22.944,22.944,0,0,0,2.841,11.916,9.348,9.348,0,0,0,8.6,4.775,22.181,22.181,0,0,0,5.685-.692,26.187,26.187,0,0,0,4.736-1.714l4.01,8.019a27.2,27.2,0,0,1-6.851,2.441,33.377,33.377,0,0,1-7.36.911q-11.736,0-17.276-7.36t-5.539-18.221q0-11.442,6.014-18.731t16.946-7.29a32.385,32.385,0,0,1,6.6.839,23.935,23.935,0,0,1,7.034,2.66l-3.28,7.506q-3.43-1.094-5.469-1.566A22.512,22.512,0,0,0,452.828,424.227Z" transform="translate(-286.435 -415.191)" fill="#fff"/>
        <path id="Tracé_435" data-name="Tracé 435" d="M525.493,416.948l18.95,48.252L533.8,466.511l-4.155-11.005H511.427l-4.081,11.005H496.631l19.1-49.563Zm-5.1,13.921-5.9,16.035h11.955Z" transform="translate(-312.75 -415.857)" fill="#fff"/>
        <path id="Tracé_436" data-name="Tracé 436" d="M615.365,466.511q-2.477-4.373-4.882-8.891t-4.81-8.894a14.19,14.19,0,0,1-1.459.074h-7.432v17.711H586.141V416.948h17.272a25.317,25.317,0,0,1,14.03,3.79q5.868,3.79,5.866,12.026a13.887,13.887,0,0,1-2.221,7.91,15.443,15.443,0,0,1-5.65,5.136q2.914,5.178,5.867,10.386t5.869,10.315Zm-12.317-40.817h-6.267V440.2h6.412a10.745,10.745,0,0,0,6.379-1.785,6.136,6.136,0,0,0,2.515-5.356q0-3.866-2.4-5.614A11.1,11.1,0,0,0,603.048,425.694Z" transform="translate(-348.106 -415.857)" fill="#fff"/>
        <path id="Tracé_437" data-name="Tracé 437" d="M684.871,416.948,703.822,465.2l-10.641,1.311-4.155-11.005H670.8l-4.081,11.005H656.009l19.1-49.563Zm-5.1,13.921-5.9,16.035H685.82Z" transform="translate(-375.704 -415.857)" fill="#fff"/>
        <path id="Tracé_438" data-name="Tracé 438" d="M764.686,466.511H745.519V416.948h19.167q11.589,0,17.346,6.889t5.76,17.6q0,11.517-6.2,18.292T764.686,466.511Zm.146-40.742H756.16v32h8.162a11.463,11.463,0,0,0,8.965-3.826q3.426-3.83,3.425-12.5,0-7.216-2.915-11.445T764.832,425.768Z" transform="translate(-411.061 -415.857)" fill="#fff"/>
        <path id="Tracé_439" data-name="Tracé 439" d="M866.016,466.511h-35.2V416.948H861.5q.289,2.117.656,4.229l.73,4.227H841.454v11.954h13.921l1.456,8.452H841.454V458.2h23.1Z" transform="translate(-444.753 -415.857)" fill="#fff"/>
      </g>
    </g>
  </g>
</svg>
