<svg xmlns="http://www.w3.org/2000/svg" width="156.259" height="32.372" viewBox="0 0 156.259 32.372">
  <g id="Groupe_29" data-name="Groupe 29" transform="translate(0 0.448)">
    <g id="Logo" transform="translate(0 -0.448)">
      <path id="Tracé_565" data-name="Tracé 565" d="M265.151,51.555a15.859,15.859,0,0,1,.472,16.219L273.5,59.9Z" transform="translate(-226.064 -43.889)" fill="#fff"/>
      <path id="Tracé_566" data-name="Tracé 566" d="M115.36-.448A16.129,16.129,0,0,0,108.942.877a15.833,15.833,0,0,1,9.078,8.388A6.268,6.268,0,0,1,118.2,21.8a15.831,15.831,0,0,1-9.259,8.8A16.187,16.187,0,1,0,115.36-.448Z" transform="translate(-92.882 0.448)" fill="#fff"/>
      <path id="Tracé_567" data-name="Tracé 567" d="M134.077,65.434h-.029a6.272,6.272,0,1,0,0,12.544c.071,0,.14-.008.21-.011a15.81,15.81,0,0,0-.181-12.532Z" transform="translate(-108.939 -55.721)" fill="#fff"/>
      <path id="Tracé_568" data-name="Tracé 568" d="M9.018,48.328,0,57.346l9.161,9.161a16.2,16.2,0,0,1-.143-18.179Z" transform="translate(0 -41.138)" fill="#fff"/>
    </g>
    <g id="Mascarade" transform="translate(53.613 9.074)">
      <path id="Tracé_569" data-name="Tracé 569" d="M368.879,74.437l-2.593-3.268v6.855h-2.593V65.948h1.7l3.943,5.257q.9-1.3,1.794-2.62t1.793-2.638h1.652V78.024H371.95V71.436q-.5.711-1.021,1.43T369.891,74.3a3.93,3.93,0,0,0-.507.071A3.858,3.858,0,0,1,368.879,74.437Z" transform="translate(-363.693 -65.682)" fill="#fff"/>
      <path id="Tracé_570" data-name="Tracé 570" d="M454.932,65.948l4.618,11.757-2.593.319-1.012-2.682H451.5l-.994,2.682H447.9l4.653-12.076Zm-1.243,3.392-1.439,3.907h2.913Z" transform="translate(-435.486 -65.682)" fill="#fff"/>
      <path id="Tracé_571" data-name="Tracé 571" d="M532.949,67.482a3.057,3.057,0,0,1,1.136-2.389,4.686,4.686,0,0,1,3.125-.949,6.379,6.379,0,0,1,1.83.275,8.376,8.376,0,0,1,1.634.665l-.835,1.954q-.693-.284-1.288-.48a4.168,4.168,0,0,0-1.305-.2,2.158,2.158,0,0,0-1.164.284.909.909,0,0,0-.453.817,1.121,1.121,0,0,0,.595.942,16.6,16.6,0,0,0,1.536.87,14.793,14.793,0,0,1,2.478,1.59,3.093,3.093,0,0,1-.027,4.884,5.328,5.328,0,0,1-3.41.968,8.179,8.179,0,0,1-2.007-.311,4.821,4.821,0,0,1-1.687-.7l.693-2.06a7.966,7.966,0,0,0,1.367.559,5.168,5.168,0,0,0,1.58.275,2.687,2.687,0,0,0,1.474-.329.993.993,0,0,0,.5-.861,1.214,1.214,0,0,0-.674-.959,12.75,12.75,0,0,0-1.492-.835,14.952,14.952,0,0,1-2.433-1.554A2.96,2.96,0,0,1,532.949,67.482Z" transform="translate(-507.998 -64.144)" fill="#fff"/>
      <path id="Tracé_572" data-name="Tracé 572" d="M606.572,66.446a2.391,2.391,0,0,0-2.078,1.119,5.282,5.282,0,0,0-.763,3.019,5.591,5.591,0,0,0,.692,2.9,2.278,2.278,0,0,0,2.1,1.164,5.405,5.405,0,0,0,1.385-.168,6.382,6.382,0,0,0,1.154-.418l.977,1.954a6.626,6.626,0,0,1-1.669.595,8.133,8.133,0,0,1-1.793.222,4.926,4.926,0,0,1-4.209-1.793,7.176,7.176,0,0,1-1.35-4.44,6.934,6.934,0,0,1,1.465-4.564,5.054,5.054,0,0,1,4.129-1.776,7.891,7.891,0,0,1,1.607.2,5.832,5.832,0,0,1,1.714.648l-.8,1.829q-.836-.267-1.333-.382A5.485,5.485,0,0,0,606.572,66.446Z" transform="translate(-566.029 -64.245)" fill="#fff"/>
      <path id="Tracé_573" data-name="Tracé 573" d="M674.664,65.948l4.617,11.757-2.593.319-1.012-2.682h-4.44l-.995,2.682h-2.611l4.653-12.076Zm-1.243,3.392-1.439,3.907h2.913Z" transform="translate(-622.826 -65.682)" fill="#fff"/>
      <path id="Tracé_574" data-name="Tracé 574" d="M764.262,78.024q-.6-1.066-1.189-2.166T761.9,73.691a3.46,3.46,0,0,1-.356.018h-1.811v4.316h-2.593V65.948h4.208a6.169,6.169,0,0,1,3.419.924A3.233,3.233,0,0,1,766.2,69.8a3.384,3.384,0,0,1-.541,1.927,3.763,3.763,0,0,1-1.377,1.252q.71,1.262,1.429,2.531t1.43,2.513Zm-3-9.945h-1.527v3.534H761.3a2.618,2.618,0,0,0,1.554-.435,1.5,1.5,0,0,0,.613-1.305,1.578,1.578,0,0,0-.586-1.368A2.705,2.705,0,0,0,761.261,68.079Z" transform="translate(-699.141 -65.682)" fill="#fff"/>
      <path id="Tracé_575" data-name="Tracé 575" d="M834.041,65.948l4.618,11.757-2.593.319-1.012-2.682h-4.44l-.994,2.682h-2.611l4.653-12.076ZM832.8,69.34l-1.439,3.907h2.913Z" transform="translate(-758.71 -65.682)" fill="#fff"/>
      <path id="Tracé_576" data-name="Tracé 576" d="M921.189,78.024h-4.67V65.948h4.67a5.194,5.194,0,0,1,4.227,1.679,6.461,6.461,0,0,1,1.4,4.289,6.353,6.353,0,0,1-1.509,4.457A5.306,5.306,0,0,1,921.189,78.024Zm.036-9.927h-2.113v7.8H921.1a2.793,2.793,0,0,0,2.184-.932,4.516,4.516,0,0,0,.835-3.046,4.843,4.843,0,0,0-.71-2.789A2.471,2.471,0,0,0,921.225,68.1Z" transform="translate(-835.025 -65.682)" fill="#fff"/>
      <path id="Tracé_577" data-name="Tracé 577" d="M1010.391,78.024h-8.578V65.948h7.476q.071.516.16,1.03l.178,1.03h-5.221v2.913h3.392l.355,2.06h-3.747V76h5.629Z" transform="translate(-907.745 -65.682)" fill="#fff"/>
    </g>
  </g>
</svg>
