<svg xmlns="http://www.w3.org/2000/svg" width="175" height="37.572" viewBox="0 0 175 37.572">
  <g transform="translate(-84.764 -100.077)">
    <g transform="translate(84.764 100.077)">
      <path d="M422.709,168.318a18.406,18.406,0,0,1,.548,18.824L432.4,178Z" transform="translate(-378.648 -159.421)" fill="#fff"/>
      <path d="M235.173,100.077a18.718,18.718,0,0,0-7.449,1.538,18.374,18.374,0,0,1,10.536,9.735,7.275,7.275,0,0,1,.21,14.545,18.375,18.375,0,0,1-10.746,10.215,18.787,18.787,0,1,0,7.449-36.034Z" transform="translate(-209.085 -100.077)" fill="#fff"/>
      <path d="M259.752,186.531l-.034,0a7.279,7.279,0,0,0,0,14.559c.083,0,.162-.01.244-.012a18.35,18.35,0,0,0-.21-14.545Z" transform="translate(-230.577 -175.257)" fill="#fff"/>
      <path d="M95.231,164.082,84.764,174.549,95.4,185.181a18.8,18.8,0,0,1-.165-21.1Z" transform="translate(-84.764 -155.737)" fill="#fff"/>
    </g>
    <g transform="translate(144.37 111.75)">
      <path d="M666.415,282.46l-.622,2.05h6.976l-.641-2.05Z" transform="translate(-649.644 -270.353)" fill="#fff"/>
      <path d="M676.379,217.759h4.2l-2.118-6.84Z" transform="translate(-658.85 -208.14)" fill="#fff"/>
      <path  d="M551.343,192.818h-8.931l4.466,9.161Z" transform="translate(-542.349 -192.399)" fill="#fff"/>
      <path d="M580.711,243.293h4v-8.23Z" transform="translate(-575.656 -229.137)" fill="#fff"/>
      <path d="M541.935,243.423h4l-4-8.21Z" transform="translate(-541.935 -229.266)" fill="#fff"/>
      <path d="M631.958,192.818v13.738h1.691l4.2-13.738Z" transform="translate(-620.221 -192.399)" fill="#fff"/>
      <path d="M779.389,204.68a8.406,8.406,0,0,1,0-10.008,5.855,5.855,0,0,1,2.641-1.855H773a4.878,4.878,0,0,1,.578.261,5.94,5.94,0,0,1,2.662,3.168l-2.682.719a3.259,3.259,0,0,0-1.3-1.574,3.192,3.192,0,0,0-1.652-.505,3.159,3.159,0,0,0-1.69.389,1.375,1.375,0,0,0-.719,1.166.925.925,0,0,0,.272.661,4.2,4.2,0,0,0,1.593.738l2.429.7a5.94,5.94,0,0,1,2.584,1.321,3.918,3.918,0,0,1-.505,6.218,4.512,4.512,0,0,1-.93.476h8.452A6.024,6.024,0,0,1,779.389,204.68Z" transform="translate(-738.695 -192.399)" fill="#fff"/>
      <g transform="translate(17.529 0.419)">
        <path d="M676.379,217.759h4.2l-2.118-6.84Z" transform="translate(-676.379 -208.559)" fill="#fff"/>
        <path d="M713.768,205.088a6.658,6.658,0,0,1-1.263-2.72l2.682-.719a3.777,3.777,0,0,0,.7,1.729,3.242,3.242,0,0,0,2.584,1.127,3.967,3.967,0,0,0,2.176-.6,1.347,1.347,0,0,0,.564-1.147,1.256,1.256,0,0,0-.428-.972,3.107,3.107,0,0,0-1.244-.622l-2.6-.758a6.785,6.785,0,0,1-2.682-1.3,3.538,3.538,0,0,1-1.2-2.721,3.851,3.851,0,0,1,2.274-3.44c.1-.046.2-.086.3-.125h-7.648l4.2,13.738H715.8A4.789,4.789,0,0,1,713.768,205.088Z" transform="translate(-703.857 -192.818)" fill="#fff"/>
      </g>
      <path d="M851.232,200.293a3.716,3.716,0,0,1-3.051,1.4,4.223,4.223,0,0,1-.881-.078,3.479,3.479,0,0,1-2.17-1.321,6.549,6.549,0,0,1,0-6.8,3.527,3.527,0,0,1,2.17-1.329,4.382,4.382,0,0,1,.881-.089,3.789,3.789,0,0,1,3.051,1.418,4.119,4.119,0,0,1,.661,1.341l2.721-.466a7.416,7.416,0,0,0-1.282-2.487,6.529,6.529,0,0,0-5.15-2.274,7.459,7.459,0,0,0-2.508.419,5.855,5.855,0,0,0-2.641,1.855,8.405,8.405,0,0,0,0,10.008,6.024,6.024,0,0,0,2.7,1.875,7.3,7.3,0,0,0,2.447.418,6.589,6.589,0,0,0,5.15-2.293,6.865,6.865,0,0,0,1.146-2.079l-2.623-.758A4.152,4.152,0,0,1,851.232,200.293Z" transform="translate(-802.339 -189.605)" fill="#fff"/>
      <path d="M950.887,191.841l-4.275,13.991h2.721l.661-2.176h5.713l.68,2.176h2.721l-4.275-13.991Zm-.136,9.327,2.079-6.84,2.118,6.84Z" transform="translate(-893.85 -191.549)" fill="#fff"/>
      <path d="M1065.265,199.206a4.531,4.531,0,0,0,.933-2.74,4.8,4.8,0,0,0-.933-2.74,4.5,4.5,0,0,0-2.332-1.671,4.917,4.917,0,0,0-1.419-.214h-6.393v13.991h2.643v-4.761h3.129l2.313,4.761h2.993l-2.565-5.266A4.3,4.3,0,0,0,1065.265,199.206Zm-2.177-1.458a2.131,2.131,0,0,1-1.593.855h-3.731v-4.275h3.731a2.164,2.164,0,0,1,1.516.758,2.188,2.188,0,0,1,.505,1.38A2.039,2.039,0,0,1,1063.088,197.748Z" transform="translate(-988.212 -191.549)" fill="#fff"/>
      <path d="M1146.889,191.841l-4.275,13.991h2.721l.661-2.176h5.713l.68,2.176h2.721l-4.275-13.991Zm-.136,9.327,2.079-6.84,2.118,6.84Z" transform="translate(-1064.298 -191.549)" fill="#fff"/>
      <path d="M1255.923,191.841h-4.8v13.991h4.8a6.775,6.775,0,0,0,5.869-3.576,7.739,7.739,0,0,0,0-6.84A6.76,6.76,0,0,0,1255.923,191.841Zm3.517,9.211a4.263,4.263,0,0,1-3.653,2.293l-1.982.019v-9.055l1.982.02a4.174,4.174,0,0,1,3.653,2.293,5.51,5.51,0,0,1,.467,2.215A4.928,4.928,0,0,1,1259.44,201.052Z" transform="translate(-1158.659 -191.549)" fill="#fff"/>
      <path d="M1366.082,194.484v-2.643h-9.133v13.991h9.133v-2.643h-6.49v-3.031h5.324v-2.643h-5.324v-3.032Z" transform="translate(-1250.688 -191.549)" fill="#fff"/>
    </g>
  </g>
</svg>
