<svg xmlns="http://www.w3.org/2000/svg" width="169.309" height="35.067" viewBox="0 0 169.309 35.067">
  <g id="logo" transform="translate(-71 -71.552)">
    <g id="Groupe_4" data-name="Groupe 4" transform="translate(71 71.552)">
      <path id="Tracé_400" data-name="Tracé 400" d="M336.151,123.555a17.178,17.178,0,0,1,.511,17.569l8.529-8.529Z" transform="translate(-293.811 -115.251)" fill="#fff"/>
      <path id="Tracé_401" data-name="Tracé 401" d="M186.894,71.552a17.471,17.471,0,0,0-6.952,1.436,17.15,17.15,0,0,1,9.833,9.086,6.789,6.789,0,0,1,.2,13.575,17.149,17.149,0,0,1-10.029,9.534,17.534,17.534,0,1,0,6.952-33.631Z" transform="translate(-162.546 -71.552)" fill="#fff"/>
      <path id="Tracé_402" data-name="Tracé 402" d="M205.6,137.435l-.032,0a6.794,6.794,0,1,0,0,13.588c.077,0,.152-.009.228-.012a17.126,17.126,0,0,0-.2-13.575Z" transform="translate(-178.372 -126.913)" fill="#fff"/>
      <path id="Tracé_403" data-name="Tracé 403" d="M80.769,120.328,71,130.1l9.923,9.923a17.549,17.549,0,0,1-.154-19.692Z" transform="translate(-71 -112.539)" fill="#fff"/>
    </g>
    <path id="Tracé_404" data-name="Tracé 404" d="M448.657,149.422h-2.525v-7.867l-3.824,7.867h-.878l-3.824-7.849v7.849h-2.525V136.249h2.525l4.263,8.746,4.263-8.746h2.525Z" transform="translate(-305.944 -54.366)" fill="#fff"/>
    <path id="Tracé_405" data-name="Tracé 405" d="M538.4,147.373h-5.379l-.622,2.049h-2.561l4.025-13.173h3.714l2.822,9.234,1.2,3.939h-2.561Zm-.713-2.342-1.994-6.44-1.958,6.44Z" transform="translate(-385.572 -54.366)" fill="#fff"/>
    <path id="Tracé_406" data-name="Tracé 406" d="M613.415,138.83a3.07,3.07,0,0,0-1.226-1.482,3.154,3.154,0,0,0-3.147-.11,1.294,1.294,0,0,0-.677,1.1.871.871,0,0,0,.256.622,3.959,3.959,0,0,0,1.5.7l2.287.659a5.594,5.594,0,0,1,2.433,1.244,3.689,3.689,0,0,1-.476,5.855,6.244,6.244,0,0,1-3.6.842,5.234,5.234,0,0,1-4.336-1.775,6.271,6.271,0,0,1-1.189-2.561l2.525-.677a3.554,3.554,0,0,0,.659,1.628,3.053,3.053,0,0,0,2.433,1.061,3.735,3.735,0,0,0,2.049-.567,1.268,1.268,0,0,0,.531-1.079,1.182,1.182,0,0,0-.4-.915,2.926,2.926,0,0,0-1.171-.585l-2.452-.714a6.39,6.39,0,0,1-2.525-1.226,3.332,3.332,0,0,1-1.134-2.561,3.626,3.626,0,0,1,2.141-3.238,6.436,6.436,0,0,1,2.781-.512,6.046,6.046,0,0,1,2.763.64,5.592,5.592,0,0,1,2.507,2.982Z" transform="translate(-448.929 -52.922)" fill="#fff"/>
    <path id="Tracé_407" data-name="Tracé 407" d="M693.423,144.136a6.459,6.459,0,0,1-1.079,1.958,6.523,6.523,0,0,1-9.7,0,7.913,7.913,0,0,1,0-9.422,6.065,6.065,0,0,1,4.848-2.141,6.147,6.147,0,0,1,4.848,2.141,6.98,6.98,0,0,1,1.208,2.342l-2.561.439a3.876,3.876,0,0,0-.622-1.263,3.567,3.567,0,0,0-2.873-1.335,3.517,3.517,0,0,0-2.872,1.335,6.166,6.166,0,0,0,0,6.4,3.452,3.452,0,0,0,2.872,1.317,3.5,3.5,0,0,0,2.873-1.317,3.907,3.907,0,0,0,.585-1.171Z" transform="translate(-512.67 -52.922)" fill="#fff"/>
    <path id="Tracé_408" data-name="Tracé 408" d="M770.551,147.373h-5.379l-.622,2.049h-2.561l4.025-13.173h3.714l4.025,13.173h-2.562Zm-.713-2.342-1.994-6.44-1.958,6.44Z" transform="translate(-580.65 -54.366)" fill="#fff"/>
    <path id="Tracé_409" data-name="Tracé 409" d="M853.418,144.464l2.415,4.958h-2.818l-2.177-4.482h-2.946v4.482H845.4V136.249h6.02a4.628,4.628,0,0,1,1.336.2,4.238,4.238,0,0,1,2.2,1.574,4.514,4.514,0,0,1,.878,2.58,4.265,4.265,0,0,1-.878,2.58A4.045,4.045,0,0,1,853.418,144.464Zm-5.525-1.848h3.513a2.007,2.007,0,0,0,1.5-.805,1.92,1.92,0,0,0,.4-1.207,2.058,2.058,0,0,0-.476-1.3,2.037,2.037,0,0,0-1.427-.714h-3.513Z" transform="translate(-650.746 -54.366)" fill="#fff"/>
    <path id="Tracé_410" data-name="Tracé 410" d="M921.227,147.373h-5.379l-.622,2.049h-2.561l4.025-13.173H920.4l4.025,13.173h-2.562Zm-.714-2.342-1.994-6.44-1.958,6.44Z" transform="translate(-707.265 -54.366)" fill="#fff"/>
    <path id="Tracé_411" data-name="Tracé 411" d="M1006.875,142.836a7.222,7.222,0,0,1-.75,3.22,6.379,6.379,0,0,1-5.525,3.366H996.08V136.249h4.519a6.365,6.365,0,0,1,5.525,3.366A7.222,7.222,0,0,1,1006.875,142.836Zm-2.525,0a5.19,5.19,0,0,0-.439-2.086,3.93,3.93,0,0,0-3.44-2.159l-1.866-.018V147.1l1.866-.018a4.014,4.014,0,0,0,3.44-2.159A4.641,4.641,0,0,0,1004.35,142.836Z" transform="translate(-777.361 -54.366)" fill="#fff"/>
    <path id="Tracé_412" data-name="Tracé 412" d="M1079.922,138.737v2.854h5.013v2.488h-5.013v2.854h6.111v2.488h-8.6V136.249h8.6v2.488Z" transform="translate(-845.724 -54.366)" fill="#fff"/>
  </g>
</svg>
