<svg id="Calque_1" data-name="Calque 1" xmlns="http://www.w3.org/2000/svg" viewBox="0 0 512 512"><defs><style>.cls-1{fill:#fff;}</style></defs><title>CVmessagemdpi</title><path class="cls-1" d="M256,126a10,10,0,1,0,10,10A10,10,0,0,0,256,126Z"/><path class="cls-1" d="M90,306a10,10,0,1,0-10-10A10,10,0,0,0,90,306Z"/><path class="cls-1" d="M336,26c-90,0-163.92,62.07-169.63,140.25C80.63,170.55,0,232.38,0,316,0,351,13.83,384.8,39,411.63a60.83,60.83,0,0,1-16.07,57.3A10,10,0,0,0,30,486a110.32,110.32,0,0,0,76.43-30.89C126.32,461.89,152.28,466,176,466c90,0,163.9-62.05,169.63-140.22,20.94-.93,42.71-4.8,59.94-10.67A110.32,110.32,0,0,0,482,346a10,10,0,0,0,7.07-17.07A60.83,60.83,0,0,1,473,271.63C498.17,244.8,512,211,512,176,512,89.11,425.16,26,336,26ZM176,446c-23.6,0-50.5-4.63-68.51-11.8a10,10,0,0,0-11.08,2.54,90.18,90.18,0,0,1-44.88,26.63,80.88,80.88,0,0,0,6.1-59.52,9.93,9.93,0,0,0-2.45-4.23C32.5,376.26,20,346.56,20,316c0-70.47,71.44-130,156-130,79.85,0,150,55.53,150,130C326,387.68,258.71,446,176,446ZM456.82,259.62a10,10,0,0,0-2.45,4.23,80.88,80.88,0,0,0,6.1,59.52,90.18,90.18,0,0,1-44.88-26.63,10,10,0,0,0-11.08-2.54c-15.61,6.21-37.88,10.51-58.91,11.55-2.92-37.82-21.79-73.36-54-99.75H422a10,10,0,0,0,0-20H260.84a186.7,186.7,0,0,0-74.42-19.71C192.16,99.13,257.06,46,336,46c84.56,0,156,59.53,156,130C492,206.56,479.5,236.26,456.82,259.62Z"/><path class="cls-1" d="M256,286H130a10,10,0,0,0,0,20H256a10,10,0,0,0,0-20Z"/><path class="cls-1" d="M256,346H90a10,10,0,0,0,0,20H256a10,10,0,0,0,0-20Z"/><path class="cls-1" d="M422,126H296a10,10,0,0,0,0,20H422a10,10,0,0,0,0-20Z"/></svg>