<svg xmlns="http://www.w3.org/2000/svg" viewBox="0 0 112 95.61"><title>message_2</title><g id="Calque_2" data-name="Calque 2"><g id="message"><path d="M105.36,72.46C109.55,68,112,62.71,112,57c0-11.53-10-21.42-24.17-25.72A20.13,20.13,0,0,1,89,38c0,15.46-17.91,28-40,28a55,55,0,0,1-15.83-2.28C37.47,75.94,53.22,85,72,85a55.71,55.71,0,0,0,11.13-1.11.64.64,0,0,1,.36,0l22.63,11.61a.55.55,0,0,0,.8-.53l-1.71-22.15A.53.53,0,0,1,105.36,72.46Z" style="fill:#fff"/><path d="M84,30C84,13.46,65.16,0,42,0S0,13.46,0,30A24.16,24.16,0,0,0,6.75,46.35L5.12,67.42a2.8,2.8,0,0,0,2.79,3,2.87,2.87,0,0,0,1.27-.31L31,59a57.91,57.91,0,0,0,11,1C65.16,60,84,46.54,84,30ZM29.53,55.2,9.27,65.59l1.51-19.46A2.78,2.78,0,0,0,10,44c-3.94-4.19-6-9-6-14C4,15.66,21.05,4,42,4S80,15.66,80,30,63,56,42,56a53.87,53.87,0,0,1-10.65-1A2.78,2.78,0,0,0,29.53,55.2Z" style="fill:#fff"/></g></g></svg>