<svg xmlns="http://www.w3.org/2000/svg" width="18.704" height="18.704" viewBox="0 0 18.704 18.704">
  <g id="Groupe_6" data-name="Groupe 6" transform="translate(-2125.511 175.476)">
    <path id="Tracé_413" data-name="Tracé 413" d="M2138.352-170a9.352,9.352,0,0,0-9.352,9.352,9.352,9.352,0,0,0,9.352,9.352,9.352,9.352,0,0,0,9.352-9.352A9.352,9.352,0,0,0,2138.352-170Zm.535,16.864a7.48,7.48,0,0,1-3.145-.69,7.512,7.512,0,0,0,4.367-6.822,7.512,7.512,0,0,0-4.367-6.822,7.48,7.48,0,0,1,3.145-.69,7.512,7.512,0,0,1,7.512,7.512A7.512,7.512,0,0,1,2138.887-153.136Z" transform="translate(-3.488 -5.476)" fill="#fff"/>
  </g>
</svg>
