<svg xmlns="http://www.w3.org/2000/svg" viewBox="0 0 73.254 73.254">
  <path id="score_medium" d="M2165.627-170A36.629,36.629,0,0,0,2129-133.373a36.629,36.629,0,0,0,36.627,36.627,36.628,36.628,0,0,0,36.627-36.627A36.628,36.628,0,0,0,2165.627-170Zm2.1,66.049a29.3,29.3,0,0,1-12.317-2.7,29.42,29.42,0,0,0,17.105-26.719,29.42,29.42,0,0,0-17.105-26.719,29.3,29.3,0,0,1,12.317-2.7,29.421,29.421,0,0,1,29.419,29.422A29.421,29.421,0,0,1,2167.723-103.951Z" transform="translate(-2129 170)" fill="#fff"/>
</svg>
