<svg xmlns="http://www.w3.org/2000/svg" width="115.396" height="115.396" viewBox="0 0 115.396 115.396">
  <g id="Groupe_6" data-name="Groupe 6" transform="translate(-2129 171.987)">
    <path id="Tracé_413" data-name="Tracé 413" d="M2186.7-170a57.7,57.7,0,0,0-57.7,57.7,57.7,57.7,0,0,0,57.7,57.7,57.7,57.7,0,0,0,57.7-57.7A57.7,57.7,0,0,0,2186.7-170ZM2190-65.954a46.145,46.145,0,0,1-19.4-4.258,46.344,46.344,0,0,0,26.945-42.09,46.343,46.343,0,0,0-26.945-42.09,46.145,46.145,0,0,1,19.4-4.258,46.348,46.348,0,0,1,46.347,46.348A46.348,46.348,0,0,1,2190-65.954Z" transform="translate(0 -1.987)" fill="#fff"/>
  </g>
</svg>
